<svg width="17" height="23" viewBox="0 0 17 23" fill="none" xmlns="http://www.w3.org/2000/svg">
<path fill-rule="evenodd" clip-rule="evenodd" d="M8.94809 19.7763C13.2719 19.7763 16.777 16.2712 16.777 11.9474C16.777 7.62355 13.2719 4.11841 8.94809 4.11841C4.62428 4.11841 1.11914 7.62355 1.11914 11.9474C1.11914 16.2712 4.62428 19.7763 8.94809 19.7763ZM11.7828 10.7673C12.018 10.5321 12.018 10.1508 11.7828 9.91558C11.5476 9.68039 11.1663 9.68039 10.9311 9.91558L8.14508 12.7016L6.96498 11.5215C6.72979 11.2863 6.34849 11.2863 6.1133 11.5215C5.87812 11.7567 5.87812 12.138 6.1133 12.3732L7.71924 13.9791C7.83218 14.0921 7.98536 14.1555 8.14508 14.1555C8.3048 14.1555 8.45798 14.0921 8.57092 13.9791L11.7828 10.7673Z" fill="#64CCC5"/>
</svg>
